<svg xmlns="http://www.w3.org/2000/svg" width="900" height="460" viewBox="0 0 900 460">
<rect width="100%" height="100%" fill="white"/>
<text x="450.0" y="25" text-anchor="middle" font-family="sans-serif" font-size="18">Held-out MAE by speed</text>
<line x1="70" y1="405" x2="875" y2="405" stroke="#222"/>
<line x1="70" y1="45" x2="70" y2="405" stroke="#222"/>
<text x="450.0" y="448" text-anchor="middle" font-family="sans-serif" font-size="13">time [s]</text>
<text x="16" y="230.0" transform="rotate(-90 16 230.0)" text-anchor="middle" font-family="sans-serif" font-size="13">MAE [deg]</text>
<line x1="70" y1="405.0" x2="875" y2="405.0" stroke="#ddd"/>
<text x="63" y="409.0" text-anchor="end" font-family="sans-serif" font-size="11">-0.3</text>
<line x1="70" y1="333.0" x2="875" y2="333.0" stroke="#ddd"/>
<text x="63" y="337.0" text-anchor="end" font-family="sans-serif" font-size="11">0.0</text>
<line x1="70" y1="261.0" x2="875" y2="261.0" stroke="#ddd"/>
<text x="63" y="265.0" text-anchor="end" font-family="sans-serif" font-size="11">0.4</text>
<line x1="70" y1="189.0" x2="875" y2="189.0" stroke="#ddd"/>
<text x="63" y="193.0" text-anchor="end" font-family="sans-serif" font-size="11">0.7</text>
<line x1="70" y1="117.0" x2="875" y2="117.0" stroke="#ddd"/>
<text x="63" y="121.0" text-anchor="end" font-family="sans-serif" font-size="11">1.1</text>
<line x1="70" y1="45.0" x2="875" y2="45.0" stroke="#ddd"/>
<text x="63" y="49.0" text-anchor="end" font-family="sans-serif" font-size="11">1.4</text>
<polyline points="70.0,190.9 472.5,147.3 875.0,151.0" fill="none" stroke="#1f77b4" stroke-width="2"/>
<polyline points="70.0,297.2 472.5,284.5 875.0,302.7" fill="none" stroke="#d62728" stroke-width="2"/>
<line x1="70" y1="59" x2="94" y2="59" stroke="#1f77b4" stroke-width="3"/>
<text x="100" y="63" font-family="sans-serif" font-size="12">static</text>
<line x1="250" y1="59" x2="274" y2="59" stroke="#d62728" stroke-width="3"/>
<text x="280" y="63" font-family="sans-serif" font-size="12">TWIP-EKF</text>
</svg>